<svg xmlns="http://www.w3.org/2000/svg" xmlns:xlink="http://www.w3.org/1999/xlink" width="500" zoomAndPan="magnify" viewBox="0 0 375 374.999991" height="500" preserveAspectRatio="xMidYMid meet" version="1.0"><defs><g/><clipPath id="b444e1127c"><path d="M 50.246094 171.183594 L 78.601562 171.183594 L 78.601562 195.652344 L 50.246094 195.652344 Z M 50.246094 171.183594 " clip-rule="nonzero"/></clipPath><clipPath id="f9ad6e444d"><path d="M 64.160156 147.292969 L 106.695312 147.292969 L 106.695312 195.652344 L 64.160156 195.652344 Z M 64.160156 147.292969 " clip-rule="nonzero"/></clipPath><clipPath id="4d1fe29d85"><path d="M 92.515625 147.292969 L 134.894531 147.292969 L 134.894531 195.652344 L 92.515625 195.652344 Z M 92.515625 147.292969 " clip-rule="nonzero"/></clipPath></defs><g fill="#3eb1be" fill-opacity="1"><g transform="translate(141.744955, 192.630643)"><g><path d="M 4.285156 -3.738281 L 4.285156 -2.515625 L 6.625 -2.515625 L 6.625 -2.296875 L 6.617188 -2.296875 C 6.292969 -1.636719 5.605469 -1.261719 4.511719 -1.261719 C 2.898438 -1.261719 2.152344 -2.054688 2.152344 -3.347656 C 2.152344 -4.636719 2.898438 -5.429688 4.511719 -5.429688 C 5.605469 -5.429688 6.292969 -5.058594 6.617188 -4.398438 L 8.472656 -4.398438 C 8.097656 -5.929688 6.761719 -6.847656 4.445312 -6.847656 C 1.65625 -6.847656 0.316406 -5.519531 0.316406 -3.347656 C 0.316406 -1.175781 1.578125 0.152344 4.179688 0.152344 C 5.308594 0.152344 6.1875 -0.105469 6.808594 -0.5625 L 6.980469 0 L 8.472656 0 L 8.472656 -3.738281 Z M 4.285156 -3.738281 "/></g></g></g><g fill="#3eb1be" fill-opacity="1"><g transform="translate(152.990705, 192.630643)"><g><path d="M 0.410156 -6.695312 L 0.410156 0 L 6.960938 0 L 6.960938 -1.414062 L 2.246094 -1.414062 L 2.246094 -2.726562 L 6.0625 -2.726562 L 6.0625 -3.96875 L 2.246094 -3.96875 L 2.246094 -5.277344 L 6.960938 -5.277344 L 6.960938 -6.695312 Z M 0.410156 -6.695312 "/></g></g></g><g fill="#3eb1be" fill-opacity="1"><g transform="translate(162.629912, 192.630643)"><g><path d="M 3.652344 -6.847656 C 1.5 -6.847656 0.402344 -6.089844 0.402344 -4.847656 C 0.402344 -4.027344 0.832031 -3.441406 1.882812 -3.117188 L 4.628906 -2.351562 C 5.058594 -2.21875 5.183594 -2.035156 5.183594 -1.777344 C 5.183594 -1.328125 4.667969 -1.109375 3.824219 -1.109375 C 2.761719 -1.109375 2.152344 -1.386719 2.152344 -1.96875 L 0.304688 -1.96875 C 0.304688 -0.734375 1.328125 0.152344 3.652344 0.152344 C 5.976562 0.152344 7.019531 -0.59375 7.019531 -1.828125 C 7.019531 -2.695312 6.644531 -3.222656 5.671875 -3.507812 L 2.820312 -4.324219 C 2.449219 -4.4375 2.246094 -4.65625 2.246094 -4.953125 C 2.246094 -5.375 2.6875 -5.585938 3.441406 -5.585938 C 4.445312 -5.585938 5.085938 -5.25 5.085938 -4.722656 L 6.914062 -4.722656 C 6.914062 -6.089844 5.804688 -6.847656 3.652344 -6.847656 Z M 3.652344 -6.847656 "/></g></g></g><g fill="#3eb1be" fill-opacity="1"><g transform="translate(172.38387, 192.630643)"><g><path d="M 0.09375 -6.695312 L 0.09375 -5.277344 L 2.484375 -5.277344 L 2.484375 0 L 4.332031 0 L 4.332031 -5.277344 L 6.703125 -5.277344 L 6.703125 -6.695312 Z M 0.09375 -6.695312 "/></g></g></g><g fill="#3eb1be" fill-opacity="1"><g transform="translate(181.621446, 192.630643)"><g><path d="M 0.402344 -6.695312 L 0.402344 0 L 2.246094 0 L 2.246094 -6.695312 Z M 0.402344 -6.695312 "/></g></g></g><g fill="#3eb1be" fill-opacity="1"><g transform="translate(186.708799, 192.630643)"><g><path d="M 4.378906 -6.847656 C 1.636719 -6.847656 0.304688 -5.519531 0.304688 -3.347656 C 0.304688 -1.175781 1.636719 0.152344 4.378906 0.152344 C 7.125 0.152344 8.445312 -1.175781 8.445312 -3.347656 C 8.445312 -5.519531 7.125 -6.847656 4.378906 -6.847656 Z M 4.378906 -5.429688 C 5.917969 -5.429688 6.609375 -4.636719 6.609375 -3.347656 C 6.609375 -2.054688 5.917969 -1.261719 4.378906 -1.261719 C 2.839844 -1.261719 2.152344 -2.054688 2.152344 -3.347656 C 2.152344 -4.636719 2.839844 -5.429688 4.378906 -5.429688 Z M 4.378906 -5.429688 "/></g></g></g><g fill="#3eb1be" fill-opacity="1"><g transform="translate(197.897167, 192.630643)"><g><path d="M 0.410156 -6.695312 L 0.410156 0 L 2.246094 0 L 2.246094 -4.285156 L 6.246094 0 L 7.859375 0 L 7.859375 -6.695312 L 6.015625 -6.695312 L 6.015625 -2.410156 L 2.019531 -6.695312 Z M 0.410156 -6.695312 "/></g></g></g><g fill="#3eb1be" fill-opacity="1"><g transform="translate(208.588271, 192.630643)"><g/></g></g><g fill="#3eb1be" fill-opacity="1"><g transform="translate(213.771246, 192.630643)"><g><path d="M 0.402344 -6.695312 L 0.402344 0 L 2.246094 0 L 2.246094 -4.800781 L 4.09375 0 L 5.164062 0 L 7.027344 -4.820312 L 7.007812 0 L 8.855469 0 L 8.855469 -6.695312 L 6.195312 -6.695312 L 4.636719 -2.628906 L 3.078125 -6.695312 Z M 0.402344 -6.695312 "/></g></g></g><g fill="#3eb1be" fill-opacity="1"><g transform="translate(225.456879, 192.630643)"><g><path d="M 0.410156 -6.695312 L 0.410156 0 L 6.960938 0 L 6.960938 -1.414062 L 2.246094 -1.414062 L 2.246094 -2.726562 L 6.0625 -2.726562 L 6.0625 -3.96875 L 2.246094 -3.96875 L 2.246094 -5.277344 L 6.960938 -5.277344 L 6.960938 -6.695312 Z M 0.410156 -6.695312 "/></g></g></g><g fill="#3eb1be" fill-opacity="1"><g transform="translate(235.096085, 192.630643)"><g><path d="M 0.09375 -6.695312 L 0.09375 -5.277344 L 2.484375 -5.277344 L 2.484375 0 L 4.332031 0 L 4.332031 -5.277344 L 6.703125 -5.277344 L 6.703125 -6.695312 Z M 0.09375 -6.695312 "/></g></g></g><g fill="#3eb1be" fill-opacity="1"><g transform="translate(244.33366, 192.630643)"><g><path d="M 2.207031 -5.277344 L 4.332031 -5.277344 C 4.859375 -5.277344 5.152344 -5.019531 5.152344 -4.523438 C 5.152344 -4.027344 4.859375 -3.730469 4.332031 -3.730469 L 2.207031 -3.730469 Z M 2.207031 -2.332031 L 4.550781 -2.332031 C 4.878906 -2.332031 5.152344 -2.054688 5.152344 -1.730469 L 5.152344 -0.429688 C 5.152344 -0.25 5.242188 -0.0390625 5.394531 0 L 7.25 0 C 7.066406 -0.078125 6.992188 -0.238281 6.992188 -0.429688 L 6.992188 -1.84375 C 6.992188 -2.390625 6.730469 -2.878906 6.292969 -3.144531 C 6.742188 -3.460938 6.992188 -3.988281 6.992188 -4.742188 C 6.992188 -6.0625 6.207031 -6.695312 4.914062 -6.695312 L 0.371094 -6.695312 L 0.371094 0 L 2.207031 0 Z M 2.207031 -2.332031 "/></g></g></g><g fill="#3eb1be" fill-opacity="1"><g transform="translate(254.240625, 192.630643)"><g><path d="M 4.378906 -6.847656 C 1.636719 -6.847656 0.304688 -5.519531 0.304688 -3.347656 C 0.304688 -1.175781 1.636719 0.152344 4.378906 0.152344 C 7.125 0.152344 8.445312 -1.175781 8.445312 -3.347656 C 8.445312 -5.519531 7.125 -6.847656 4.378906 -6.847656 Z M 4.378906 -5.429688 C 5.917969 -5.429688 6.609375 -4.636719 6.609375 -3.347656 C 6.609375 -2.054688 5.917969 -1.261719 4.378906 -1.261719 C 2.839844 -1.261719 2.152344 -2.054688 2.152344 -3.347656 C 2.152344 -4.636719 2.839844 -5.429688 4.378906 -5.429688 Z M 4.378906 -5.429688 "/></g></g></g><g fill="#3eb1be" fill-opacity="1"><g transform="translate(265.428999, 192.630643)"><g><path d="M 0.402344 -6.695312 L 0.402344 0 L 6.953125 0 L 6.953125 -1.414062 L 2.246094 -1.414062 L 2.246094 -6.695312 Z M 0.402344 -6.695312 "/></g></g></g><g fill="#3eb1be" fill-opacity="1"><g transform="translate(274.915208, 192.630643)"><g><path d="M 4.378906 -6.847656 C 1.636719 -6.847656 0.304688 -5.519531 0.304688 -3.347656 C 0.304688 -1.175781 1.636719 0.152344 4.378906 0.152344 C 7.125 0.152344 8.445312 -1.175781 8.445312 -3.347656 C 8.445312 -5.519531 7.125 -6.847656 4.378906 -6.847656 Z M 4.378906 -5.429688 C 5.917969 -5.429688 6.609375 -4.636719 6.609375 -3.347656 C 6.609375 -2.054688 5.917969 -1.261719 4.378906 -1.261719 C 2.839844 -1.261719 2.152344 -2.054688 2.152344 -3.347656 C 2.152344 -4.636719 2.839844 -5.429688 4.378906 -5.429688 Z M 4.378906 -5.429688 "/></g></g></g><g fill="#3eb1be" fill-opacity="1"><g transform="translate(286.103582, 192.630643)"><g><path d="M 4.285156 -3.738281 L 4.285156 -2.515625 L 6.625 -2.515625 L 6.625 -2.296875 L 6.617188 -2.296875 C 6.292969 -1.636719 5.605469 -1.261719 4.511719 -1.261719 C 2.898438 -1.261719 2.152344 -2.054688 2.152344 -3.347656 C 2.152344 -4.636719 2.898438 -5.429688 4.511719 -5.429688 C 5.605469 -5.429688 6.292969 -5.058594 6.617188 -4.398438 L 8.472656 -4.398438 C 8.097656 -5.929688 6.761719 -6.847656 4.445312 -6.847656 C 1.65625 -6.847656 0.316406 -5.519531 0.316406 -3.347656 C 0.316406 -1.175781 1.578125 0.152344 4.179688 0.152344 C 5.308594 0.152344 6.1875 -0.105469 6.808594 -0.5625 L 6.980469 0 L 8.472656 0 L 8.472656 -3.738281 Z M 4.285156 -3.738281 "/></g></g></g><g fill="#3eb1be" fill-opacity="1"><g transform="translate(297.349337, 192.630643)"><g><path d="M 0.402344 -6.695312 L 0.402344 0 L 2.246094 0 L 2.246094 -6.695312 Z M 0.402344 -6.695312 "/></g></g></g><g fill="#3eb1be" fill-opacity="1"><g transform="translate(302.436696, 192.630643)"><g><path d="M 4.445312 -6.847656 C 1.664062 -6.847656 0.304688 -5.519531 0.304688 -3.347656 C 0.304688 -1.175781 1.664062 0.152344 4.445312 0.152344 C 6.761719 0.152344 8.070312 -0.765625 8.445312 -2.296875 L 6.609375 -2.296875 C 6.28125 -1.644531 5.585938 -1.261719 4.496094 -1.261719 C 2.867188 -1.261719 2.152344 -2.046875 2.152344 -3.347656 C 2.152344 -4.648438 2.867188 -5.429688 4.496094 -5.429688 C 5.585938 -5.429688 6.28125 -5.050781 6.609375 -4.398438 L 8.445312 -4.398438 C 8.070312 -5.929688 6.761719 -6.847656 4.445312 -6.847656 Z M 4.445312 -6.847656 "/></g></g></g><g fill="#3eb1be" fill-opacity="1"><g transform="translate(313.62507, 192.630643)"><g><path d="M 2.800781 -6.695312 L 0.09375 0 L 2.066406 0 L 2.601562 -1.320312 L 5.726562 -1.320312 L 6.261719 0 L 8.242188 0 L 5.535156 -6.695312 Z M 5.144531 -2.734375 L 3.175781 -2.734375 L 4.160156 -5.164062 Z M 5.144531 -2.734375 "/></g></g></g><g fill="#3eb1be" fill-opacity="1"><g transform="translate(140.597814, 173.41689)"><g><path d="M 15.0625 -14.054688 L 15.0625 -8.648438 L 22.414062 -8.648438 C 21.332031 -7.027344 19.460938 -6.125 16.503906 -6.125 C 11.386719 -6.125 9.371094 -8.578125 9.371094 -12.613281 C 9.371094 -16.648438 11.386719 -19.097656 16.503906 -19.097656 C 19.820312 -19.097656 21.800781 -17.945312 22.808594 -15.925781 L 31.496094 -15.925781 C 30.269531 -22.125 25.332031 -25.800781 16.289062 -25.800781 C 5.695312 -25.800781 0.722656 -20.828125 0.722656 -12.613281 C 0.722656 -4.394531 5.226562 0.578125 14.953125 0.578125 C 18.667969 0.578125 21.621094 -0.144531 23.855469 -1.550781 L 24.648438 0 L 31.496094 0 L 31.496094 -14.054688 Z M 15.0625 -14.054688 "/></g></g></g><g fill="#3eb1be" fill-opacity="1"><g transform="translate(180.452204, 173.41689)"><g><path d="M 1.082031 -25.226562 L 1.082031 0 L 25.691406 0 L 25.691406 -6.703125 L 9.730469 -6.703125 L 9.730469 -9.800781 L 22.558594 -9.800781 L 22.558594 -15.421875 L 9.730469 -15.421875 L 9.730469 -18.523438 L 25.691406 -18.523438 L 25.691406 -25.226562 Z M 1.082031 -25.226562 "/></g></g></g><g fill="#ff914d" fill-opacity="1"><g transform="translate(214.255977, 173.41689)"><g><path d="M 1.082031 -25.226562 L 1.082031 0 L 9.730469 0 L 9.730469 -15.785156 L 14.59375 0 L 19.386719 0 L 24.289062 -15.890625 L 24.25 0 L 32.898438 0 L 32.898438 -25.226562 L 20.433594 -25.226562 L 17.007812 -12.902344 L 13.621094 -25.226562 Z M 1.082031 -25.226562 "/></g></g></g><g fill="#ff914d" fill-opacity="1"><g transform="translate(255.62381, 173.41689)"><g><path d="M 1.082031 -25.226562 L 1.082031 0 L 25.691406 0 L 25.691406 -6.703125 L 9.730469 -6.703125 L 9.730469 -9.800781 L 22.558594 -9.800781 L 22.558594 -15.421875 L 9.730469 -15.421875 L 9.730469 -18.523438 L 25.691406 -18.523438 L 25.691406 -25.226562 Z M 1.082031 -25.226562 "/></g></g></g><g fill="#ff914d" fill-opacity="1"><g transform="translate(289.424402, 173.41689)"><g><path d="M 0.359375 -25.226562 L 0.359375 -18.523438 L 8.578125 -18.523438 L 8.578125 0 L 17.226562 0 L 17.226562 -18.523438 L 25.441406 -18.523438 L 25.441406 -25.226562 Z M 0.359375 -25.226562 "/></g></g></g><g clip-path="url(#b444e1127c)"><path fill="#ff914d" d="M 71.40625 171.210938 L 57.308594 171.210938 L 50.246094 183.445312 L 57.308594 195.652344 L 71.40625 195.652344 L 78.46875 183.445312 L 71.40625 171.210938 " fill-opacity="1" fill-rule="nonzero"/></g><g clip-path="url(#f9ad6e444d)"><path fill="#3eb1be" d="M 102.230469 175.726562 L 101.753906 174.902344 L 99.632812 171.210938 L 99.621094 171.210938 L 90.125 154.773438 L 90.125 154.777344 L 85.507812 146.792969 L 71.40625 146.792969 L 64.34375 159 L 69.097656 167.21875 L 80.730469 187.371094 L 85.507812 195.652344 L 99.632812 195.652344 L 106.667969 183.445312 L 102.230469 175.726562 " fill-opacity="1" fill-rule="nonzero"/></g><g clip-path="url(#4d1fe29d85)"><path fill="#a6a6a6" d="M 130.09375 175.132812 L 130.113281 175.121094 L 118.035156 154.167969 L 118.007812 154.1875 L 113.730469 146.792969 L 99.632812 146.792969 L 92.570312 159 L 99.632812 171.210938 L 99.636719 171.210938 L 106.6875 183.410156 L 106.667969 183.445312 L 113.730469 195.652344 L 127.832031 195.652344 L 134.894531 183.445312 L 130.09375 175.132812 " fill-opacity="1" fill-rule="nonzero"/></g></svg>